<?xml version="1.0" ?><!DOCTYPE svg  PUBLIC '-//W3C//DTD SVG 1.1//EN'  'http://www.w3.org/Graphics/SVG/1.1/DTD/svg11.dtd'><svg enable-background="new 0 0 256 256" height="256px" version="1.1" viewBox="0 0 256 256" width="256px" xml:space="preserve" xmlns="http://www.w3.org/2000/svg" xmlns:xlink="http://www.w3.org/1999/xlink"><g id="Layer_1"><circle cx="128" cy="128" fill="#2AB1E0" r="128"/></g><g id="Layer_3"><path d="M146.75,69.22h-100c-6.903,0-12.5,5.596-12.5,12.5v58.333c0,6.903,5.597,12.501,12.5,12.501h7.759h0.862   v17.297l22.844-17.297h68.536c6.902,0,12.5-5.598,12.5-12.501V81.72C159.25,74.816,153.652,69.22,146.75,69.22z" fill="#084049"/></g><g id="Layer_2"><path d="M209.25,110.703h-100c-6.903,0-12.5,5.596-12.5,12.5v58.334c0,6.902,5.597,12.5,12.5,12.5h5.604   l22.844,17.297v-17.297h71.553c6.902,0,12.5-5.598,12.5-12.5v-58.334C221.75,116.299,216.152,110.703,209.25,110.703z" fill="#F9F9FA"/></g><g id="Layer_4"><circle cx="129.509" cy="152.555" fill="#2AB1E0" r="10"/><circle cx="159.681" cy="152.555" fill="#2AB1E0" r="10"/><circle cx="188.99" cy="152.555" fill="#2AB1E0" r="10"/></g></svg>