<?xml version="1.0" ?><svg data-name="Layer 1" id="Layer_1" viewBox="0 0 512 512" xmlns="http://www.w3.org/2000/svg"><defs><style>.cls-1{fill:#f06060;}.cls-2{fill:#efecca;}.cls-3{fill:#5c4b51;}</style></defs><title/><rect class="cls-1" height="512" rx="256" ry="256" width="512"/><path class="cls-2" d="M306.66,122.49H221.38A114.26,114.26,0,0,0,107.12,236.75v26.38a113.72,113.72,0,0,0,20.42,65.2h0l-27.13,85.41,76.27-45.42h0a113.89,113.89,0,0,0,44.69,9.07h85.27A114.26,114.26,0,0,0,420.91,263.13V236.75A114.26,114.26,0,0,0,306.66,122.49Z"/><circle class="cls-3" cx="192.43" cy="248.76" r="28.91"/><circle class="cls-3" cx="272.43" cy="248.76" r="28.91"/><circle class="cls-3" cx="350.43" cy="248.76" r="28.91"/></svg>